<svg width="44" height="43" viewBox="0 0 44 43" fill="none" xmlns="http://www.w3.org/2000/svg">
<path d="M15.6719 30.5701C15.8232 30.5699 15.9712 30.6145 16.0971 30.6984C16.223 30.7823 16.3212 30.9017 16.3793 31.0414C16.4374 31.1811 16.4528 31.3349 16.4235 31.4833C16.3941 31.6318 16.3214 31.7682 16.2146 31.8753C16.1078 31.9824 15.9715 32.0554 15.8232 32.0851C15.6748 32.1149 15.521 32.1 15.3811 32.0422C15.2412 31.9845 15.1216 31.8866 15.0374 31.7609C14.9532 31.6352 14.9082 31.4874 14.908 31.3361C14.908 31.1333 14.9884 30.9387 15.1316 30.7951C15.2748 30.6515 15.4691 30.5706 15.6719 30.5701V30.5701Z" fill="white" stroke="white" stroke-width="2" stroke-linecap="round" stroke-linejoin="round"/>
<path d="M26.9249 30.5701C27.0762 30.5701 27.2242 30.6149 27.35 30.699C27.4758 30.783 27.5738 30.9025 27.6317 31.0423C27.6896 31.1821 27.7047 31.3359 27.6752 31.4843C27.6457 31.6327 27.5729 31.769 27.4659 31.876C27.3589 31.983 27.2226 32.0559 27.0742 32.0854C26.9258 32.1149 26.772 32.0997 26.6322 32.0418C26.4924 31.9839 26.3729 31.8859 26.2889 31.7601C26.2048 31.6343 26.1599 31.4864 26.1599 31.3351C26.1604 31.1324 26.2412 30.9381 26.3846 30.7947C26.5279 30.6514 26.7222 30.5706 26.9249 30.5701V30.5701Z" fill="white" stroke="white" stroke-width="2" stroke-linecap="round" stroke-linejoin="round"/>
<path d="M11 14L13.08 14.36L14.043 25.833C14.08 26.2845 14.2859 26.7054 14.6195 27.0118C14.9531 27.3182 15.39 27.4875 15.843 27.486H26.75C27.1839 27.4867 27.6035 27.3307 27.9315 27.0466C28.2594 26.7626 28.4737 26.3696 28.535 25.94L29.484 19.382C29.5349 19.0301 29.4439 18.6724 29.231 18.3875C29.0182 18.1027 28.7009 17.914 28.349 17.863C28.2854 17.8539 28.2212 17.8492 28.157 17.849H13.414" fill="white"/>
<path d="M11 14L13.08 14.36L14.043 25.833C14.08 26.2845 14.2859 26.7054 14.6195 27.0118C14.9531 27.3182 15.39 27.4875 15.843 27.486H26.75C27.1839 27.4867 27.6035 27.3307 27.9315 27.0466C28.2594 26.7626 28.4737 26.3696 28.535 25.94L29.484 19.382C29.5349 19.0301 29.4439 18.6724 29.231 18.3875C29.0182 18.1027 28.7009 17.914 28.349 17.863C28.2854 17.8539 28.2212 17.8492 28.157 17.849H13.414" stroke="white" stroke-width="2" stroke-linecap="round" stroke-linejoin="round"/>
<path d="M22.375 21.5459H25.15Z" fill="white"/>
<path d="M22.375 21.5459H25.15" stroke="white" stroke-width="2" stroke-linecap="round" stroke-linejoin="round"/>
<path d="M33 22C39.0751 22 44 17.0751 44 11C44 4.92487 39.0751 0 33 0C26.9249 0 22 4.92487 22 11C22 17.0751 26.9249 22 33 22Z" fill="#F60022"/>
</svg>
